<svg width="20" height="18" viewBox="0 0 20 18" fill="none" xmlns="http://www.w3.org/2000/svg">
<path d="M4.69531 17.1719C3.45312 17.1719 2.72656 16.4531 2.72656 15.25V8.10938L1.91406 8.78125C1.70312 8.96094 1.46094 9.09375 1.20312 9.09375C0.648438 9.09375 0.304688 8.71875 0.304688 8.25781C0.304688 8.00781 0.421875 7.74219 0.65625 7.55469L8.79688 0.71875C9.53906 0.09375 10.4844 0.09375 11.2188 0.71875L14.8359 3.75781V2.38281C14.8359 2.03125 15.0781 1.80469 15.4297 1.80469H16.6484C17.0078 1.80469 17.2344 2.03125 17.2344 2.38281V5.77344L19.3516 7.54688C19.5781 7.74219 19.6953 7.98438 19.6953 8.27344C19.6953 8.77344 19.3125 9.09375 18.8047 9.09375C18.5391 9.09375 18.2969 8.96094 18.0859 8.78125L17.2344 8.07031V15.25C17.2344 16.4453 16.5078 17.1719 15.2656 17.1719H4.69531ZM12.2422 10.3828V15.4297H14.7578C15.2344 15.4297 15.5 15.1562 15.5 14.6797V6.60938L10.3828 2.3125C10.1406 2.10938 9.86719 2.10938 9.63281 2.3125L4.46094 6.64844V14.6797C4.46094 15.1562 4.72656 15.4297 5.20312 15.4297H7.75781V10.3828C7.75781 10.0156 8 9.77344 8.36719 9.77344H11.6328C12 9.77344 12.2422 10.0156 12.2422 10.3828Z" fill="#87F3A5"/>
</svg>
