<svg width="13" height="19" viewBox="0 0 13 19" fill="none" xmlns="http://www.w3.org/2000/svg">
<path d="M3.36719 14.5234C3.02344 14.5234 2.78125 14.2812 2.78125 13.9375V12.7734C2.78125 10.8906 0 9.71875 0 6.21875C0 2.50781 2.53906 0 6.29688 0C10.0547 0 12.5859 2.50781 12.5859 6.21875C12.5859 9.71875 9.80469 10.8906 9.80469 12.7734V13.9375C9.80469 14.2812 9.57031 14.5234 9.21875 14.5234H3.36719ZM3.5625 16.7422C3.11719 16.7422 2.76562 16.3828 2.76562 15.9453C2.76562 15.5156 3.11719 15.1484 3.5625 15.1484H9.03906C9.47656 15.1484 9.83594 15.5156 9.83594 15.9453C9.83594 16.3828 9.47656 16.7422 9.03906 16.7422H3.5625ZM6.29688 18.75C5.10156 18.75 4.25781 18.2031 4.17969 17.375H8.41406C8.33594 18.2031 7.48438 18.75 6.29688 18.75Z" fill="#87F3A5"/>
</svg>
