<svg width="167" height="72" viewBox="0 0 167 72" fill="none" xmlns="http://www.w3.org/2000/svg">
<path d="M61.746 30.4997C61.7984 30.7981 61.9137 31.0593 62.092 31.283C62.2701 31.507 62.5009 31.6827 62.784 31.8106C63.0775 31.928 63.4131 31.9866 63.7904 31.9866C64.4092 31.9866 64.8704 31.8481 65.1744 31.5708C65.4785 31.283 65.6305 30.9368 65.6305 30.5317C65.6305 30.2119 65.5363 29.9455 65.3474 29.7323C65.1587 29.5192 64.8913 29.3381 64.5453 29.1889C64.2099 29.0398 63.8167 28.8958 63.3659 28.7572C62.9464 28.6293 62.527 28.4908 62.1077 28.3415C61.6988 28.1924 61.3266 28.0059 60.991 27.7822C60.6659 27.5582 60.4038 27.2704 60.2047 26.9188C60.0159 26.5565 59.9216 26.1035 59.9216 25.5599C59.9216 24.8779 60.0841 24.297 60.4091 23.8174C60.7447 23.3378 61.2008 22.9755 61.7774 22.7304C62.354 22.4851 63.0199 22.3627 63.7748 22.3627C64.4143 22.3627 64.991 22.4585 65.5047 22.6505C66.0184 22.8315 66.4483 23.1034 66.7945 23.4657C67.1508 23.8174 67.413 24.2545 67.5807 24.7766L65.6148 25.3201C65.5623 25.0857 65.4471 24.8832 65.2688 24.7127C65.0906 24.5421 64.8703 24.4088 64.6082 24.313C64.3567 24.2065 64.0892 24.1532 63.8061 24.1532C63.4917 24.1424 63.2033 24.1904 62.9411 24.297C62.679 24.4036 62.4694 24.5581 62.312 24.7607C62.1549 24.9631 62.0762 25.1976 62.0762 25.4641C62.0762 25.7624 62.1653 26.0022 62.3436 26.1835C62.5219 26.3539 62.7578 26.5032 63.0512 26.6309C63.3449 26.7483 63.6751 26.8655 64.0422 26.9828C64.472 27.1106 64.9072 27.2598 65.3474 27.4303C65.7982 27.5902 66.2073 27.798 66.5743 28.0539C66.9412 28.299 67.2347 28.6134 67.4549 28.9971C67.6855 29.3807 67.8009 29.8656 67.8009 30.4517C67.8009 31.0699 67.6542 31.6294 67.3605 32.1304C67.0774 32.6313 66.6475 33.031 66.0709 33.3294C65.4944 33.6278 64.7708 33.7771 63.9006 33.7771C63.1876 33.7771 62.5376 33.6705 61.9504 33.4573C61.3738 33.2442 60.8967 32.935 60.5192 32.5301C60.1419 32.1145 59.8954 31.6241 59.78 31.0593L61.746 30.4997Z" fill="white"/>
<path d="M71.6198 33.6653H69.4966V22.4746H71.9185L75.4259 30.8515L78.933 22.4746H81.3549V33.6653H79.2318V26.4392L76.2593 33.6653H74.5922L71.6198 26.4392V33.6653Z" fill="white"/>
<path d="M88.521 24.2812H87.9548L84.7149 33.6653H82.5289L86.4764 22.4746H89.9836L93.9311 33.6653H91.7451L88.521 24.2812ZM84.9195 29.2849H91.3362V31.0913H84.9195V29.2849Z" fill="white"/>
<path d="M101.406 25.9277C101.406 25.4267 101.254 25.0272 100.95 24.7286C100.656 24.4303 100.195 24.2812 99.5659 24.2812H97.2225V27.5902H99.5659C99.9852 27.5902 100.331 27.5264 100.604 27.3984C100.876 27.2599 101.076 27.0681 101.201 26.823C101.338 26.5671 101.406 26.2688 101.406 25.9277ZM99.6288 22.4746C100.52 22.4746 101.254 22.6345 101.831 22.9542C102.418 23.2634 102.853 23.6842 103.136 24.2171C103.429 24.7394 103.576 25.3095 103.576 25.9277C103.576 26.3434 103.503 26.759 103.356 27.1747C103.209 27.5797 102.979 27.9527 102.664 28.2938C102.35 28.6241 101.941 28.8905 101.437 29.0931C100.945 29.2955 100.342 29.3968 99.6288 29.3968H97.2225V33.6653H95.0994V22.4746H99.6288ZM100.824 28.6774L103.797 33.6653H101.422L98.575 28.6774H100.824Z" fill="white"/>
<path d="M104.901 22.4746H113.819V24.2812H110.422V33.6653H108.298V24.2812H104.901V22.4746Z" fill="white"/>
<path d="M66.5114 41.5811C66.5114 41.0802 66.3593 40.6805 66.0553 40.3821C65.7616 40.0837 65.3002 39.9344 64.6713 39.9344H62.3279V43.2437H64.6713C65.0906 43.2437 65.4365 43.1798 65.7093 43.0519C65.9818 42.9134 66.181 42.7216 66.3068 42.4765C66.4432 42.2206 66.5114 41.9222 66.5114 41.5811ZM64.7342 38.1281C65.6252 38.1281 66.3593 38.2879 66.9359 38.6077C67.5231 38.9166 67.9582 39.3377 68.2413 39.8706C68.5348 40.3929 68.6815 40.963 68.6815 41.5811C68.6815 41.9969 68.6083 42.4124 68.4615 42.8281C68.3146 43.2331 68.084 43.6061 67.7695 43.9472C67.4549 44.2775 67.046 44.544 66.5427 44.7464C66.05 44.9489 65.4471 45.0502 64.7342 45.0502H62.3279V49.3185H60.2047V38.1281H64.7342ZM65.9293 44.3308L68.9018 49.3185H66.527L63.6803 44.3308H65.9293Z" fill="white"/>
<path d="M78.2633 39.9344H72.6489V42.7801H76.848V44.5226H72.6489V47.5122H78.2633V49.3185H70.5257V38.1281H78.2633V39.9344Z" fill="white"/>
<path d="M87.7532 38.1281H90.0178L85.976 49.3185H83.4124L79.3863 38.1281H81.6509L84.7022 47.1125L87.7532 38.1281Z" fill="white"/>
<path d="M105.363 38.1281V47.5122H110.254V49.3185H103.239V38.1281H105.363Z" fill="white"/>
<path d="M111.624 38.1281H113.747V45.194C113.747 45.7164 113.852 46.1585 114.061 46.521C114.271 46.8727 114.554 47.1391 114.911 47.3203C115.278 47.5014 115.697 47.5921 116.169 47.5921C116.651 47.5921 117.076 47.5014 117.443 47.3203C117.81 47.1391 118.098 46.8727 118.308 46.521C118.518 46.1585 118.622 45.7164 118.622 45.194V38.1281H120.745V45.0822C120.745 45.8175 120.62 46.4569 120.368 47.0006C120.116 47.5441 119.77 47.997 119.33 48.3595C118.9 48.7218 118.407 48.9935 117.852 49.1747C117.307 49.3452 116.735 49.4306 116.137 49.4306C115.34 49.4306 114.596 49.2707 113.904 48.951C113.223 48.6312 112.672 48.1516 112.253 47.5122C111.833 46.8727 111.624 46.0627 111.624 45.0822V38.1281Z" fill="white"/>
<path d="M122.318 38.1281H131.235V39.9344H127.838V49.3185H125.715V39.9344H122.318V38.1281Z" fill="white"/>
<path d="M132.82 38.1281H134.943V49.3185H132.82V38.1281Z" fill="white"/>
<path d="M158.498 38.1281V49.3185H156.343L151.515 41.5492V49.3185H149.392V38.1281H151.547L156.375 45.8974V38.1281H158.498Z" fill="white"/>
<g filter="url(#filter0_d_759_1040)">
<path d="M30.6338 18.8779C30.6338 17.9388 31.1309 17.0698 31.9404 16.5936L46.2385 8.18288C46.9452 7.76718 47.8362 8.27673 47.8362 9.09661V17.5328C47.8362 18.472 47.3392 19.341 46.5297 19.8171L32.2315 28.2279C31.5249 28.6435 30.6338 28.1341 30.6338 27.3142V18.8779Z" fill="url(#paint0_linear_759_1040)"/>
<path d="M32.2337 63.8106L47.8384 54.6314L37.8262 48.7155L31.9426 52.1764C31.133 52.6524 30.6362 53.5215 30.6362 54.4606V62.8968C30.6362 63.7167 31.527 64.2263 32.2337 63.8106Z" fill="url(#paint1_linear_759_1040)"/>
<path d="M47.8384 44.3434C47.8384 43.4034 47.3404 42.5337 46.5297 42.0578L18.1671 25.4103C17.3289 24.9183 16.2885 24.9246 15.4563 25.4267L8.54504 29.5974C7.85819 30.0118 7.86279 31.0096 8.55346 31.4177L37.8262 48.7155L47.8384 54.6315V44.3434Z" fill="#312EE9"/>
</g>
<path d="M92.5317 46.7434C90.9036 44.4125 91.8199 40.9926 94.3952 39.7881C96.6027 38.7558 99.0751 39.4182 100.471 41.416" stroke="white" stroke-width="1.95918"/>
<path d="M137.439 46.04C138.834 48.0378 141.307 48.7004 143.514 47.6679C146.089 46.4634 147.006 43.0436 145.378 40.7128" stroke="white" stroke-width="1.95918"/>
<defs>
<filter id="filter0_d_759_1040" x="7.64083" y="7.64308" width="40.5894" height="56.7074" filterUnits="userSpaceOnUse" color-interpolation-filters="sRGB">
<feFlood flood-opacity="0" result="BackgroundImageFix"/>
<feColorMatrix in="SourceAlpha" type="matrix" values="0 0 0 0 0 0 0 0 0 0 0 0 0 0 0 0 0 0 127 0" result="hardAlpha"/>
<feOffset/>
<feGaussianBlur stdDeviation="0.195918"/>
<feComposite in2="hardAlpha" operator="out"/>
<feColorMatrix type="matrix" values="0 0 0 0 0 0 0 0 0 0 0 0 0 0 0 0 0 0 0.15 0"/>
<feBlend mode="normal" in2="BackgroundImageFix" result="effect1_dropShadow_759_1040"/>
<feBlend mode="normal" in="SourceGraphic" in2="effect1_dropShadow_759_1040" result="shape"/>
</filter>
<linearGradient id="paint0_linear_759_1040" x1="47.7267" y1="24.259" x2="6.65739" y2="45.7983" gradientUnits="userSpaceOnUse">
<stop stop-color="#FF4672"/>
<stop offset="1" stop-color="#D12650"/>
</linearGradient>
<linearGradient id="paint1_linear_759_1040" x1="34.9601" y1="15.8954" x2="-7.91481" y2="35.8581" gradientUnits="userSpaceOnUse">
<stop stop-color="#D0264F"/>
<stop offset="1" stop-color="#FF86A3"/>
</linearGradient>
</defs>
</svg>
