<svg width="18" height="15" viewBox="0 0 18 15" fill="none" xmlns="http://www.w3.org/2000/svg">
<path d="M3.02344 5.74219C1.5 5.74219 0.265625 4.50781 0.265625 2.97656C0.265625 1.46094 1.5 0.226562 3.02344 0.226562C4.54688 0.226562 5.78125 1.46094 5.78125 2.97656C5.78125 4.50781 4.54688 5.74219 3.02344 5.74219ZM14.9688 5.74219C13.4453 5.74219 12.2109 4.50781 12.2109 2.97656C12.2109 1.46094 13.4453 0.226562 14.9688 0.226562C16.4922 0.226562 17.7266 1.46094 17.7266 2.97656C17.7266 4.50781 16.4922 5.74219 14.9688 5.74219ZM7.03906 3.72656C6.65625 3.72656 6.35156 3.41406 6.35156 3.03125C6.35156 2.65625 6.66406 2.34375 7.03906 2.34375C7.41406 2.34375 7.72656 2.65625 7.72656 3.03125C7.72656 3.40625 7.41406 3.72656 7.03906 3.72656ZM8.98438 3.72656C8.60938 3.72656 8.29688 3.40625 8.29688 3.03125C8.29688 2.65625 8.60938 2.34375 8.98438 2.34375C9.36719 2.34375 9.67969 2.65625 9.67969 3.03125C9.67969 3.40625 9.36719 3.72656 8.98438 3.72656ZM10.9453 3.72656C10.5703 3.72656 10.2578 3.40625 10.2578 3.03125C10.2578 2.65625 10.5703 2.34375 10.9453 2.34375C11.3203 2.34375 11.6328 2.65625 11.6328 3.03125C11.6328 3.41406 11.3281 3.72656 10.9453 3.72656ZM12.9141 7.30469C12.5391 7.30469 12.2266 6.99219 12.2266 6.60938C12.2266 6.24219 12.5391 5.92969 12.9141 5.92969C13.2969 5.92969 13.6094 6.24219 13.6094 6.60938C13.6094 6.99219 13.2969 7.30469 12.9141 7.30469ZM5.07031 7.30469C4.6875 7.30469 4.375 6.99219 4.375 6.60938C4.375 6.24219 4.69531 5.92969 5.07031 5.92969C5.44531 5.92969 5.75781 6.24219 5.75781 6.60938C5.75781 6.99219 5.44531 7.30469 5.07031 7.30469ZM11.4219 8.94531C11.0469 8.94531 10.7344 8.64062 10.7344 8.25C10.7344 7.88281 11.0547 7.57031 11.4219 7.57031C11.8047 7.57031 12.1172 7.88281 12.1172 8.25C12.1172 8.63281 11.8047 8.94531 11.4219 8.94531ZM6.5625 8.94531C6.17969 8.94531 5.86719 8.64062 5.86719 8.25C5.86719 7.88281 6.17969 7.57031 6.5625 7.57031C6.9375 7.57031 7.25 7.88281 7.25 8.25C7.25 8.63281 6.9375 8.94531 6.5625 8.94531ZM8.99219 14.5234C7.47656 14.5234 6.24219 13.2812 6.24219 11.7578C6.24219 10.2422 7.47656 9 8.99219 9C10.5234 9 11.7578 10.2422 11.7578 11.7578C11.7578 13.2812 10.5234 14.5234 8.99219 14.5234Z" fill="#87F3A5"/>
</svg>
