<svg width="20" height="15" viewBox="0 0 20 15" fill="none" xmlns="http://www.w3.org/2000/svg">
<path d="M0.453125 10.5312C0.453125 9.84375 0.664062 9.23438 0.898438 8.6875L3.58594 2.45312C4.14844 1.14844 5.25 0.4375 6.75 0.4375H13.25C14.7422 0.4375 15.8516 1.14844 16.4141 2.45312L19.125 8.73438C19.3516 9.27344 19.5391 9.86719 19.5391 10.5312C19.5391 12.7031 17.9375 14.2969 15.625 14.2969H4.36719C2.05469 14.2969 0.453125 12.7031 0.453125 10.5312ZM3.45312 6.90625C3.73438 6.8125 4.03906 6.76562 4.36719 6.76562H15.625C15.9531 6.76562 16.2578 6.8125 16.5391 6.90625L14.8516 2.82031C14.5938 2.19531 14.0156 1.85938 13.2578 1.85938H6.74219C5.97656 1.85938 5.40625 2.19531 5.14844 2.82031L3.45312 6.90625ZM2.10938 10.5312C2.10938 11.75 3.00781 12.6484 4.36719 12.6484H15.625C16.9844 12.6484 17.8906 11.8672 17.8906 10.5312C17.8906 9.3125 16.9844 8.41406 15.625 8.41406H4.36719C3.00781 8.41406 2.10938 9.3125 2.10938 10.5312ZM7.71094 11.2812V9.78125C7.71094 9.51562 7.92969 9.29688 8.20312 9.29688C8.47656 9.29688 8.6875 9.51562 8.6875 9.78125V11.2812C8.6875 11.5547 8.47656 11.7734 8.20312 11.7734C7.92969 11.7734 7.71094 11.5547 7.71094 11.2812ZM9.5 11.2812V9.78125C9.5 9.51562 9.71875 9.29688 10 9.29688C10.2656 9.29688 10.4844 9.51562 10.4844 9.78125V11.2812C10.4844 11.5547 10.2656 11.7734 10 11.7734C9.71875 11.7734 9.5 11.5547 9.5 11.2812ZM11.2969 11.2812V9.78125C11.2969 9.51562 11.5156 9.29688 11.7969 9.29688C12.0625 9.29688 12.2812 9.51562 12.2812 9.78125V11.2812C12.2812 11.5547 12.0625 11.7734 11.7969 11.7734C11.5156 11.7734 11.2969 11.5547 11.2969 11.2812ZM13.0938 11.2812V9.78125C13.0938 9.51562 13.3125 9.29688 13.5859 9.29688C13.8594 9.29688 14.0781 9.51562 14.0781 9.78125V11.2812C14.0781 11.5547 13.8594 11.7734 13.5859 11.7734C13.3125 11.7734 13.0938 11.5547 13.0938 11.2812ZM14.8906 11.2812V9.78125C14.8906 9.51562 15.1094 9.29688 15.3828 9.29688C15.6562 9.29688 15.8672 9.51562 15.8672 9.78125V11.2812C15.8672 11.5547 15.6562 11.7734 15.3828 11.7734C15.1094 11.7734 14.8906 11.5547 14.8906 11.2812Z" fill="#87F3A5"/>
</svg>
