<svg width="12" height="16" viewBox="0 0 12 16" fill="none" xmlns="http://www.w3.org/2000/svg">
<path d="M2.17969 15.9609C1.10156 15.9609 0.570312 15.4219 0.570312 14.2578V8.34375C0.570312 7.34375 1.05469 6.80469 1.89844 6.6875V4.76562C1.89844 1.77344 3.90625 0.335938 6 0.335938C8.09375 0.335938 10.1094 1.77344 10.1094 4.76562V6.66406C10.9922 6.75 11.4297 7.29688 11.4297 8.34375V14.2578C11.4297 15.4219 10.9062 15.9609 9.82812 15.9609H2.17969ZM3.54688 4.625V6.65625L8.45312 6.64844V4.625C8.45312 2.89062 7.35156 1.92188 6 1.92188C4.64844 1.92188 3.54688 2.89062 3.54688 4.625Z" fill="#87F3A5"/>
</svg>
