<svg width="17" height="22" viewBox="0 0 17 22" fill="none" xmlns="http://www.w3.org/2000/svg">
<path d="M8.76562 3.86719C8.35156 3.86719 8.01562 3.52344 8.01562 3.11719V1.55469C8.01562 1.14062 8.35156 0.796875 8.76562 0.796875C9.17969 0.796875 9.51562 1.14062 9.51562 1.55469V3.11719C9.51562 3.52344 9.17969 3.86719 8.76562 3.86719ZM12.4219 5.39062C12.1406 5.10156 12.1328 4.625 12.4219 4.33594L13.5391 3.22656C13.8359 2.92969 14.3047 2.92969 14.5938 3.21875C14.8828 3.50781 14.8828 3.99219 14.5938 4.28125L13.4844 5.38281C13.1953 5.67969 12.7031 5.67969 12.4219 5.39062ZM4.78125 21.4688C2.34375 21.4688 0.367188 19.5234 0.367188 17.0938C0.367188 15.8594 0.851562 14.7734 1.78906 13.9141C1.95312 13.7656 1.99219 13.6797 1.99219 13.4609L1.97656 6.72656C1.97656 4.90625 3.10938 3.6875 4.78125 3.6875C5.96875 3.6875 6.875 4.30469 7.30469 5.32031C7.75781 5.13281 8.25 5.03125 8.76562 5.03125C10.9844 5.03125 12.7656 6.82031 12.7656 9.03906C12.7656 11.2656 10.9844 13.0547 8.76562 13.0547C8.35156 13.0547 7.94531 12.9844 7.5625 12.8672V13.4609C7.5625 13.6797 7.59375 13.7656 7.75781 13.9141C8.6875 14.7812 9.17969 15.8594 9.17969 17.0938C9.17969 19.5234 7.21094 21.4688 4.78125 21.4688ZM4.78125 19.9766C6.38281 19.9766 7.67969 18.6641 7.67969 17.0625C7.67969 16.0625 7.21094 15.2109 6.39062 14.6641C6.15625 14.5078 6.0625 14.3672 6.0625 14.0469V6.78125C6.0625 5.8125 5.53906 5.1875 4.78125 5.1875C4.01562 5.1875 3.49219 5.8125 3.49219 6.78125V14.0469C3.49219 14.3672 3.39844 14.5078 3.16406 14.6641C2.33594 15.2109 1.875 16.0625 1.875 17.0625C1.875 18.6641 3.17188 19.9766 4.78125 19.9766ZM8.76562 6.44531C8.33594 6.44531 7.92969 6.5625 7.57031 6.76562L7.5625 11.3359C7.92188 11.5312 8.33594 11.6406 8.76562 11.6406C10.2109 11.6406 11.3516 10.5 11.3516 9.03906C11.3516 7.58594 10.2109 6.44531 8.76562 6.44531ZM4.77344 18.9219C3.75 18.9219 2.92188 18.0938 2.92188 17.0547C2.92188 16.3359 3.32031 15.75 3.91406 15.4297C4.16406 15.2891 4.25 15.1953 4.25 14.8281V7.39844C4.25 7.01562 4.48438 6.78125 4.77344 6.78125C5.07031 6.78125 5.30469 7.01562 5.30469 7.39844V14.8281C5.30469 15.1953 5.39062 15.2891 5.63281 15.4297C6.22656 15.75 6.63281 16.3359 6.63281 17.0547C6.63281 18.0859 5.80469 18.9219 4.77344 18.9219ZM14.6719 9.78906C14.2656 9.78906 13.9219 9.45312 13.9219 9.03906C13.9219 8.63281 14.2656 8.28906 14.6719 8.28906L16.2422 8.29688C16.6484 8.29688 16.9844 8.63281 16.9844 9.03906C16.9844 9.45312 16.6484 9.78906 16.2422 9.78906H14.6719ZM13.5391 14.8672L12.4219 13.7578C12.1328 13.4688 12.1328 12.9922 12.4219 12.7031C12.7031 12.4141 13.1875 12.4141 13.4766 12.7031L14.5859 13.8125C14.875 14.1094 14.8828 14.5859 14.5938 14.8672C14.3047 15.1562 13.8281 15.1641 13.5391 14.8672Z" fill="#87F3A5"/>
</svg>
