<svg width="28" height="28" viewBox="0 0 28 28" fill="none" xmlns="http://www.w3.org/2000/svg">
<path d="M14 28C21.732 28 28 21.732 28 14C28 6.26801 21.732 0 14 0C6.26801 0 0 6.26801 0 14C0 21.732 6.26801 28 14 28Z" fill="#51A2DD"/>
<path fill-rule="evenodd" clip-rule="evenodd" d="M6.33816 13.8522C10.4195 12.074 13.1409 10.9018 14.5027 10.3354C18.3906 8.71827 19.1985 8.43735 19.7251 8.42808C19.8409 8.42604 20.0998 8.45474 20.2676 8.59085C20.4092 8.70577 20.4482 8.86102 20.4668 8.96998C20.4855 9.07895 20.5087 9.32717 20.4902 9.52112C20.2795 11.7348 19.3679 17.107 18.9041 19.5864C18.7078 20.6355 18.3214 20.9873 17.9473 21.0217C17.1343 21.0965 16.5169 20.4844 15.7295 19.9683C14.4973 19.1606 13.8012 18.6578 12.6052 17.8696C11.2229 16.9587 12.119 16.4581 12.9067 15.6399C13.1129 15.4258 16.695 12.1676 16.7643 11.872C16.773 11.835 16.781 11.6972 16.6992 11.6245C16.6173 11.5517 16.4965 11.5766 16.4093 11.5964C16.2857 11.6244 14.3173 12.9255 10.504 15.4996C9.94531 15.8832 9.43922 16.0702 8.98579 16.0604C8.48592 16.0496 7.52437 15.7777 6.80955 15.5454C5.9328 15.2604 5.23597 15.1097 5.29665 14.6257C5.32826 14.3736 5.67543 14.1157 6.33816 13.8522Z" fill="white"/>
</svg>
