<svg width="21" height="14" viewBox="0 0 21 14" fill="none" xmlns="http://www.w3.org/2000/svg">
<path d="M3.47656 13.8516C1.72656 13.8516 0.734375 12.9609 0.734375 11.2578V3.53906C0.734375 1.83594 1.78125 0.859375 3.47656 0.859375H11.6484C13.3984 0.859375 14.3359 1.83594 14.3359 3.53906V11.1797C14.3359 12.8828 13.3438 13.8516 11.5938 13.8516H3.47656ZM15.5312 9.99219V4.78125L18.1016 2.57031C18.4609 2.27344 18.8125 2.07031 19.1719 2.07031C19.8281 2.07031 20.2812 2.53906 20.2812 3.24219V11.5391C20.2812 12.2422 19.8281 12.7109 19.1719 12.7109C18.8203 12.7109 18.4609 12.5078 18.1016 12.2031L15.5312 9.99219Z" fill="#87F3A5"/>
</svg>
