<svg width="27" height="28" viewBox="0 0 27 28" fill="none" xmlns="http://www.w3.org/2000/svg">
<path fill-rule="evenodd" clip-rule="evenodd" d="M10.1923 7.80185C9.94063 7.24389 9.67581 7.23259 9.43675 7.22293L8.79315 7.21509C8.56925 7.21509 8.20544 7.29894 7.89789 7.63434C7.59034 7.96974 6.72266 8.78034 6.72266 10.4291C6.72266 12.0778 7.92583 13.671 8.09349 13.8948C8.26115 14.1187 10.4162 17.6099 13.829 18.9531C16.6651 20.0694 17.2422 19.8474 17.8581 19.7916C18.4739 19.7359 19.8446 18.981 20.1242 18.1985C20.4038 17.416 20.404 16.7455 20.3201 16.6054C20.2363 16.4652 20.0124 16.3819 19.6764 16.2142C19.3403 16.0465 17.6899 15.2359 17.3821 15.1239C17.0744 15.012 16.8507 14.9564 16.6266 15.2918C16.4025 15.6272 15.7598 16.3817 15.5639 16.6054C15.3679 16.829 15.1723 16.8571 14.8363 16.6896C14.5002 16.5221 13.419 16.1681 12.1362 15.0264C11.1381 14.1382 10.4644 13.0412 10.2683 12.706C10.0721 12.3708 10.2474 12.1892 10.4158 12.0222C10.5665 11.872 10.7515 11.6309 10.9197 11.4353C11.0879 11.2397 11.1433 11.0999 11.255 10.8766C11.3668 10.6533 11.3111 10.4572 11.2271 10.2896C11.1431 10.1221 10.4907 8.46481 10.1923 7.80204" fill="#A9E8C1"/>
<path fill-rule="evenodd" clip-rule="evenodd" d="M1.90649 20.1097L0 27.0572L7.12337 25.1929C9.08611 26.261 11.2958 26.8241 13.5445 26.825H13.5504C20.9563 26.825 26.9848 20.8097 26.988 13.4176C26.9893 9.83504 25.5933 6.46646 23.056 3.93219C20.5187 1.39792 17.1449 0.00182282 13.5505 0C6.14355 0 0.115971 6.01422 0.112866 13.4069C0.110021 15.7597 0.728685 18.0716 1.90649 20.1097ZM2.38282 13.4078C2.38502 7.2636 7.39515 2.26487 13.5559 2.26487C15.0231 2.26141 16.4765 2.54846 17.8319 3.1094C19.1873 3.67035 20.4177 4.49405 21.452 5.53283C22.492 6.56595 23.3164 7.79472 23.8773 9.148C24.4383 10.5013 24.7248 11.9522 24.7201 13.4167C24.7178 19.5613 19.7076 24.5605 13.5517 24.5605H13.5475C11.5429 24.5594 9.57724 24.0224 7.86287 23.0069L7.45469 22.7656L3.2275 23.8719L4.35598 19.76L4.09025 19.3383C2.97174 17.5619 2.37979 15.5058 2.38282 13.4078Z" fill="#A9E8C1"/>
</svg>
